# xmcd CD database file
#
# Track frame offsets:
#	182
#	18175
#	32152
#	50985
#	68142
#	84607
#	105115
#	121175
#	140495
#	152262
#
# Disc length: 2334 seconds
#
# Revision: 0
# Processed by: cddbd v1.5.1PL0 Copyright (c) Steve Scherf et al.
# Submitted via: CDex 1.51
#
DISCID=76091c0a
DTITLE=Eddie Boyd - The Legacy Of The Blues Vol. 10
DYEAR=1988
DGENRE=Blues
TTITLE0=Lovesick Soul
TTITLE1=I'm A Fool
TTITLE2=Kindness For Weakness
TTITLE3=Tell TheTruth
TTITLE4=The Cannonball
TTITLE5=Black Brown And White
TTITLE6=It's A Mellow Day
TTITLE7=Do Yourself A Favour
TTITLE8=Dedication To My Baby
TTITLE9=Zip Code
EXTD=YEAR: 1988
EXTT0=
EXTT1=
EXTT2=
EXTT3=
EXTT4=
EXTT5=
EXTT6=
EXTT7=
EXTT8=
EXTT9=
PLAYORDER=
